<?xml version="1.0" standalone="no"?><!DOCTYPE svg PUBLIC "-//W3C//DTD SVG 1.1//EN" "http://www.w3.org/Graphics/SVG/1.1/DTD/svg11.dtd"><svg t="1507391517304" class="icon" style="" viewBox="0 0 1025 1024" version="1.1" xmlns="http://www.w3.org/2000/svg" p-id="1773" xmlns:xlink="http://www.w3.org/1999/xlink" width="200.1953125" height="200"><defs><style type="text/css"></style></defs><path d="M567.472059 821.409954c-3.417729 0.001024-6.857984-0.7116-10.095509-2.171661-8.809509-3.972675-14.472619-12.738157-14.472619-22.401587L542.903931 627.708257c-29.785848 2.078487-83.527541 7.616683-145.685571 22.261315-55.144416 12.991057-106.046875 30.509735-151.293391 52.068664-55.848849 26.609756-103.141088 59.468284-140.563073 97.662278-7.439551 7.593134-18.916281 9.542611-28.443534 4.830691-9.528277-4.710896-14.946678-15.013231-13.430304-25.533652 0.354264-2.457325 9.061385-61.055306 42.62537-136.624186 19.691363-44.336282 43.951301-85.481114 72.103028-122.293887 35.208345-46.039004 76.619387-85.377702 123.089446-116.930776 9.492441-7.120099 109.303854-80.010495 241.598029-99.934279L542.903931 153.476315c0-9.655239 5.653895-18.416625 14.453165-22.393396 8.800294-3.975747 19.11082-2.430704 26.35788 3.949126L948.469003 456.170605c5.293487 4.659702 8.329307 11.370247 8.33545 18.422769s-3.018414 13.767162-8.30371 18.437103L583.745692 815.253332C579.165853 819.299726 573.353256 821.409954 567.472059 821.409954zM567.477179 577.332075c6.464812 0 12.674676 2.547427 17.277041 7.099621 4.668917 4.615675 7.296207 10.908474 7.296207 17.473627l0 140.436111 303.029101-267.695842-303.029101-266.793799 0 117.023949c0 12.612219-9.547731 23.176668-22.096469 24.448334-132.768234 13.450782-238.416817 92.576639-239.468348 93.374246-0.350169 0.265186-0.729006 0.538564-1.09351 0.78532-42.290559 28.637049-80.018686 64.452557-112.135921 106.450286-25.814197 33.756475-48.097013 71.569584-66.226951 112.38882-8.059001 18.144272-14.55453 35.211416-19.758939 50.541027 28.351385-20.625146 59.821524-39.184091 94.153423-55.496632 48.560833-23.075304 102.961908-41.750972 161.692994-55.508919 99.704929-23.356872 176.846497-24.488265 180.081975-24.524101C567.290831 577.332075 567.385029 577.332075 567.477179 577.332075z" p-id="1774" fill="#2c2c2c"></path></svg>