<?xml version="1.0" standalone="no"?><!DOCTYPE svg PUBLIC "-//W3C//DTD SVG 1.1//EN" "http://www.w3.org/Graphics/SVG/1.1/DTD/svg11.dtd"><svg t="1514435156823" class="icon" style="" viewBox="0 0 1337 1024" version="1.1" xmlns="http://www.w3.org/2000/svg" p-id="1900" xmlns:xlink="http://www.w3.org/1999/xlink" width="41.78125" height="32"><defs><style type="text/css">@font-face { font-family: uc-nexus-iconfont; src: url("chrome-extension://pogijhnlcfmcppgimcaccdkmbedjkmhi/res/font_9qmmi8b8jsxxbt9.woff") format("woff"), url("chrome-extension://pogijhnlcfmcppgimcaccdkmbedjkmhi/res/font_9qmmi8b8jsxxbt9.ttf") format("truetype"); }
</style></defs><path d="M1246.390711 842.639275c-56.019744-57.129907-132.764236-155.504671-227.220176-197.486226-108.25368-44.907883-229.041457-84.79701-373.122193-84.79701-28.066148 0.046044-50.801467 22.786479-50.852627 50.852626v192.221905l-475.139519-344.25284 475.139519-346.08947V320.514793c0 13.715884 5.678714 27.083884 15.552514 36.609799 10.047742 9.612886 25.426313 14.416771 36.957683 14.155856l7.863228-0.086971c48.141168 0 323.364382 23.830134 473.794023 217.990987 48.765315 65.811689 91.248234 162.242389 117.196375 253.63387l-0.168827-0.179059m-107.793243-365.366401c-77.097493-78.309975-177.206567-134.176241-297.498097-166.064009a829.143377 829.143377 0 0 0-160.820152-26.07604V46.969614a46.73428 46.73428 0 0 0-25.753734-41.735989 46.263612 46.263612 0 0 0-48.92391 3.872781L39.674257 421.161043a47.066817 47.066817 0 0 0 0.158595 75.971982l565.932433 410.120804a46.831483 46.831483 0 0 0 74.600906-37.939947v-221.689825c190.288072 8.236693 342.54411 67.008823 440.796091 170.346067 77.98767 82.106016 97.121354 165.178949 97.84782 168.325263a46.979846 46.979846 0 0 0 46.018046 37.699497l4.200202-0.163711a46.984962 46.984962 0 0 0 42.789876-46.018045c3.463504-211.5193-54.82261-379.767823-173.420758-500.540254" fill="#1296db" p-id="1901"></path></svg>